<?xml version="1.0" standalone="no"?><!DOCTYPE svg PUBLIC "-//W3C//DTD SVG 1.1//EN" "http://www.w3.org/Graphics/SVG/1.1/DTD/svg11.dtd"><svg t="1550983009213" class="icon" style="" viewBox="0 0 1024 1024" version="1.1" xmlns="http://www.w3.org/2000/svg" p-id="2284" xmlns:xlink="http://www.w3.org/1999/xlink" width="200" height="200"><defs><style type="text/css"></style></defs><path d="M480 736H704c17.066667 0 32-14.933333 32-32s-14.933333-32-32-32H480c-17.066667 0-32 14.933333-32 32s14.933333 32 32 32zM320 736h32c17.066667 0 32-14.933333 32-32s-14.933333-32-32-32H320c-17.066667 0-32 14.933333-32 32s14.933333 32 32 32zM480 544H704c17.066667 0 32-14.933333 32-32s-14.933333-32-32-32H480c-17.066667 0-32 14.933333-32 32s14.933333 32 32 32zM320 544h32c17.066667 0 32-14.933333 32-32s-14.933333-32-32-32H320c-17.066667 0-32 14.933333-32 32s14.933333 32 32 32zM480 352H704c17.066667 0 32-14.933333 32-32s-14.933333-32-32-32H480c-17.066667 0-32 14.933333-32 32s14.933333 32 32 32zM320 352h32c17.066667 0 32-14.933333 32-32s-14.933333-32-32-32H320c-17.066667 0-32 14.933333-32 32s14.933333 32 32 32z" fill="#1296db" p-id="2285"></path><path d="M864 0h-704C142.933333 0 128 14.933333 128 32v960c0 17.066667 14.933333 32 32 32h704c17.066667 0 32-14.933333 32-32v-960c0-17.066667-14.933333-32-32-32zM832 960H192V64h640v896z" fill="#1296db" p-id="2286"></path></svg>