<?xml version="1.0" standalone="no"?><!DOCTYPE svg PUBLIC "-//W3C//DTD SVG 1.1//EN" "http://www.w3.org/Graphics/SVG/1.1/DTD/svg11.dtd"><svg t="1550999543986" class="icon" style="" viewBox="0 0 1024 1024" version="1.1" xmlns="http://www.w3.org/2000/svg" p-id="3266" xmlns:xlink="http://www.w3.org/1999/xlink" width="200" height="200"><defs><style type="text/css"></style></defs><path d="M512.7 908.2c0 11-9 20-20 20H117.8c-11 0-20-9-20-20v-7.1c0-11 9-20 20-20h374.9c11 0 20 9 20 20v7.1zM382.4 773.7c-7.8 7.8-20.5 7.8-28.3 0l-148-148c-7.8-7.8-7.8-20.5 0-28.3l5.1-5.1c7.8-7.8 20.5-7.8 28.3 0l148 148c7.8 7.8 7.8 20.5 0 28.3l-5.1 5.1z" fill="#2680F0" p-id="3267"></path><path d="M527.1 264.6c-7.7-7.8-20.5-7.9-28.3-0.1L183.3 577.3c-7.8 7.7-16.3 22.8-18.9 33.5l-59.5 245c-2.6 10.7 4.1 17.5 14.8 15.1l248.5-55c10.7-2.4 25.9-10.7 33.7-18.4l314.6-313c7.8-7.8 7.8-20.5 0.1-28.3L527.1 264.6zM369.9 757.1c-7.9 7.7-16.2 14.5-18.4 15.1-2.3 0.6-12.9 3.2-23.6 5.7l-147.4 34c-10.7 2.5-17.3-4.2-14.7-14.9L202 648.5c2.6-10.7 5.2-21.1 5.7-23 0.5-2 7.3-10 15-17.8l273-275.1c7.7-7.8 20.4-7.8 28.1 0L647.7 458c7.7 7.8 7.6 20.5-0.3 28.2L369.9 757.1zM678.9 110.7c-7.8-7.8-20.5-7.8-28.2 0l-107 107.7c-7.8 7.8-7.7 20.6 0.1 28.3l192.1 192.1c7.8 7.8 20.5 7.8 28.2 0L871 331.1c7.8-7.8 7.7-20.6-0.1-28.3l-192-192.1zM605 246.2c-7.8-7.8-7.9-20.6-0.3-28.6l43.4-45.4c7.6-8 20.2-8.1 28-0.4l135.1 134.4c7.8 7.8 7.8 20.5 0.1 28.3l-44.5 44.7c-7.8 7.8-20.5 7.8-28.3 0.1L605 246.2z" fill="#2680F0" p-id="3268"></path></svg>